# xmcd CD database file
#
# Track frame offsets:
#	150
#	44953
#	68471
#	90953
#	115926
#	151973
#	203200
#
# Disc length: 3956 seconds
#
# Revision: 0
# Processed by: cddbd v1.5.2PL0 Copyright (c) Steve Scherf et al.
# Submitted via: CDex 1.70beta2
#
DISCID=560f7207
DTITLE=Jackie McLean - Modern Jazz Hard Bop CD 081
DYEAR=2008
DGENRE=Jazz
TTITLE0=Sentimental Journey
TTITLE1=Why Was I Born
TTITLE2=Contour
TTITLE3=When I Fall In Love
TTITLE4=Abstraction
TTITLE5=Confirmation
TTITLE6=A Long Drink Of The Blues
EXTD=YEAR: 2008
EXTT0=
EXTT1=
EXTT2=
EXTT3=
EXTT4=
EXTT5=
EXTT6=
PLAYORDER=
